<?xml version="1.0" encoding="utf-8"?>
<!-- Generator: Adobe Illustrator 27.9.0, SVG Export Plug-In . SVG Version: 6.00 Build 0)  -->
<svg version="1.1" id="Camada_1" xmlns="http://www.w3.org/2000/svg" xmlns:xlink="http://www.w3.org/1999/xlink" x="0px" y="0px"
	 viewBox="0 0 1024 1024" style="enable-background:new 0 0 1024 1024;" xml:space="preserve">
<style type="text/css">
	.st0{fill:#5FC5EC;}
	.st1{fill:#F4E84B;}
	.st2{fill:#E0A3CA;}
	.st3{fill:#E21F27;}
	.st4{fill:#F18631;}
	.st5{fill:#29235C;}
	.st6{fill:#ABCC63;}
	.st7{fill:#FFFFFF;}
</style>
<g>
	<path class="st0" d="M612.79,555.58l92.35-36.19c0,0,84.09-22.44,88.85-97.69c4.77-75.25-68.09-99.08-68.09-99.08
		s-55.15-25.53-108.6,15.66c-10.6,6.39-26.13,21.8-69.61,88.37C611.29,453.95,628.25,498.77,612.79,555.58z"/>
	<path class="st1" d="M617.31,338.27c-0.11,0.34-0.67,0.93-1.62,1.75C616.22,339.44,616.77,338.85,617.31,338.27z"/>
	<path class="st2" d="M417.15,486.23c0,0-60.95,16.51-100.44,34.53c-19.49-9.03-37.12-18.82-51.4-29.98
		c0,0-52.09-40.85-25.19-112.68s120.51-60.94,120.51-60.94s28.36,4.61,43.23,18.38s33.13,31.66,67.63,95.15
		C449.28,443.63,430.95,461.84,417.15,486.23z"/>
	<path class="st3" d="M417.15,486.23c0.04-0.67-82.02,24.2-100.44,34.53c-18.11,10.16-55.49,17.49-80.34,70.6
		s28.6,106.55,28.6,106.55s61.96,58.89,139.91,6.13c0,0,7.97,1.6,74.62-90.09C420.43,584.83,398.06,542.81,417.15,486.23z"/>
	<path class="st4" d="M528.93,618.96c0.46-0.04,86.39,80.29,89.06,82.02c2.75,1.79,1.27,95.66-104.73,103.49
		s-110.19-99.22-110.19-99.22c-0.27-0.38,37.14-36.72,76.43-91.3C497.8,619.15,514.83,621.9,528.93,618.96z"/>
	<path class="st5" d="M650.33,769.75"/>
	<path class="st6" d="M730.67,713.24c61.28-27.91,61.62-89.19,61.62-89.19s6.47-77.92-87.15-104.66l-92.35,36.19
		c2.24,1.13-28.58,61.72-83.86,63.39c-0.05,0.07,87.24,81.71,90.38,82.99C621.71,702.94,669.4,741.15,730.67,713.24"/>
	<path class="st4" d="M592.52,647.42"/>
	<path class="st1" d="M617.31,338.27c-0.54,0.58-1.09,1.17-1.62,1.75c-29.73,32.11-51.58,60.61-68,86.62
		c-33.28-19.19-72.56,2.02-75.96,3.92c-0.01,0.01-0.01,0-0.01,0c-0.15,0.1-0.23,0.14-0.23,0.14c3.42,5.06-39.74-72.05-67.63-95.15
		v-31.32c0,0,6.81-76.25,104.51-85.11c0,0,79.32-2.04,106.89,74.56C615.26,293.68,619.35,332.15,617.31,338.27z"/>
	<ellipse class="st7" cx="514.26" cy="519.96" rx="104.67" ry="101.29"/>
</g>
</svg>
